<svg id="svg" version="1.1" xmlns="http://www.w3.org/2000/svg" xmlns:xlink="http://www.w3.org/1999/xlink" width="400" height="60.800000000000004" viewBox="0, 0, 400,60.800000000000004"><g id="svgg"><path id="path0" d="M388.074 5.015 C 387.918 5.268,388.258 5.565,388.569 5.445 C 388.719 5.388,388.786 5.238,388.729 5.090 C 388.616 4.793,388.238 4.750,388.074 5.015 M392.996 10.588 C 392.673 10.978,393.069 11.336,393.426 10.979 C 393.647 10.758,393.650 10.694,393.447 10.525 C 393.263 10.372,393.164 10.386,392.996 10.588 M74.668 14.745 C 74.667 15.527,74.681 15.554,74.915 15.220 C 75.135 14.906,75.135 14.810,74.916 14.391 L 74.669 13.917 74.668 14.745 M144.708 14.795 C 144.502 15.006,144.333 15.220,144.333 15.271 C 144.333 15.322,144.165 15.504,143.958 15.676 L 143.583 15.989 144.024 15.994 C 144.322 15.998,144.628 15.815,144.967 15.429 C 145.243 15.115,145.504 14.893,145.547 14.936 C 145.590 14.979,145.667 14.906,145.718 14.774 C 145.779 14.615,145.715 14.548,145.530 14.576 C 145.376 14.600,145.212 14.573,145.167 14.516 C 145.121 14.459,144.915 14.585,144.708 14.795 M205.723 14.595 C 205.584 14.957,205.936 15.297,206.189 15.045 C 206.402 14.831,206.270 14.333,206.000 14.333 C 205.903 14.333,205.778 14.451,205.723 14.595 M344.792 15.118 C 344.998 15.157,345.335 15.157,345.542 15.118 C 345.748 15.078,345.579 15.045,345.167 15.045 C 344.754 15.045,344.585 15.078,344.792 15.118 M344.935 15.470 C 344.881 15.558,345.042 15.764,345.293 15.928 C 345.737 16.216,345.743 16.216,345.500 15.915 C 345.273 15.633,345.277 15.614,345.542 15.714 C 345.702 15.774,345.833 15.750,345.833 15.661 C 345.833 15.573,345.764 15.500,345.680 15.500 C 345.596 15.500,345.416 15.457,345.280 15.405 C 345.145 15.353,344.989 15.383,344.935 15.470 M232.834 16.251 C 232.953 16.395,232.929 16.518,232.752 16.665 C 232.613 16.780,232.502 16.959,232.505 17.062 C 232.508 17.165,232.602 17.130,232.714 16.983 C 232.918 16.716,233.015 16.667,233.346 16.667 C 233.704 16.667,233.406 16.083,233.038 16.064 C 232.759 16.050,232.707 16.098,232.834 16.251 M378.451 18.498 C 378.499 18.680,378.604 18.789,378.686 18.738 C 378.767 18.688,378.833 18.734,378.833 18.841 C 378.833 18.948,378.723 18.993,378.589 18.942 C 378.189 18.789,378.126 19.133,378.515 19.342 C 378.764 19.474,378.839 19.477,378.760 19.350 C 378.698 19.249,378.726 19.167,378.823 19.167 C 379.104 19.167,379.028 18.380,378.736 18.268 C 378.362 18.124,378.355 18.130,378.451 18.498 M220.208 22.416 C 219.943 22.718,219.947 22.804,220.238 23.095 C 220.594 23.451,220.667 23.392,220.667 22.750 C 220.667 22.127,220.543 22.036,220.208 22.416 M147.277 24.957 C 147.228 25.035,147.251 25.200,147.328 25.324 C 147.497 25.597,148.057 25.421,147.958 25.125 C 147.875 24.874,147.400 24.757,147.277 24.957 M227.833 29.452 C 227.472 29.584,227.000 30.023,227.000 30.226 C 227.000 30.333,227.077 30.323,227.200 30.200 C 227.310 30.090,227.479 30.001,227.575 30.003 C 227.671 30.004,227.640 30.075,227.505 30.160 C 227.370 30.245,227.305 30.360,227.360 30.416 C 227.415 30.471,227.573 30.403,227.710 30.266 C 227.848 30.128,227.988 30.044,228.022 30.077 C 228.056 30.111,228.083 29.958,228.083 29.736 C 228.083 29.515,228.083 29.339,228.083 29.346 C 228.083 29.354,227.971 29.401,227.833 29.452 M94.518 30.561 C 94.375 30.734,94.385 30.836,94.559 30.980 C 94.827 31.203,95.272 30.805,95.088 30.507 C 94.941 30.270,94.744 30.289,94.518 30.561 M388.912 30.507 C 388.728 30.805,389.173 31.203,389.441 30.980 C 389.615 30.836,389.625 30.734,389.482 30.561 C 389.256 30.289,389.059 30.270,388.912 30.507 M361.781 31.274 C 361.545 31.510,361.679 31.833,362.012 31.833 C 362.245 31.833,362.340 31.743,362.304 31.555 C 362.244 31.249,361.960 31.096,361.781 31.274 M346.529 32.277 C 346.561 32.445,346.699 32.583,346.836 32.583 C 347.193 32.583,347.141 32.099,346.777 32.029 C 346.554 31.986,346.486 32.054,346.529 32.277 M175.728 33.280 C 175.789 33.388,175.763 33.524,175.669 33.582 C 175.576 33.639,175.500 33.607,175.500 33.510 C 175.500 33.413,175.422 33.333,175.327 33.333 C 175.210 33.333,175.212 33.441,175.333 33.667 C 175.532 34.038,175.347 34.113,175.023 33.792 C 174.855 33.625,174.836 33.641,174.925 33.875 C 174.986 34.035,175.107 34.167,175.194 34.167 C 175.282 34.167,175.306 34.260,175.247 34.375 C 175.189 34.490,175.250 34.452,175.381 34.292 C 175.644 33.970,176.091 33.885,175.901 34.192 C 175.828 34.311,175.855 34.340,175.972 34.267 C 176.210 34.120,176.135 33.563,175.840 33.289 C 175.686 33.147,175.652 33.144,175.728 33.280 M275.277 36.124 C 275.228 36.202,275.251 36.367,275.328 36.491 C 275.497 36.764,276.057 36.587,275.958 36.292 C 275.875 36.041,275.400 35.924,275.277 36.124 M285.698 37.125 C 285.729 37.285,285.865 37.417,286.000 37.417 C 286.135 37.417,286.271 37.285,286.302 37.125 C 286.341 36.920,286.251 36.833,286.000 36.833 C 285.749 36.833,285.659 36.920,285.698 37.125 M390.508 37.740 C 390.373 37.903,390.381 37.982,390.537 38.039 C 390.801 38.136,391.167 38.019,391.167 37.837 C 391.167 37.587,390.693 37.518,390.508 37.740 M390.542 38.448 C 390.702 38.490,390.965 38.490,391.125 38.448 C 391.285 38.406,391.154 38.372,390.833 38.372 C 390.512 38.372,390.381 38.406,390.542 38.448 M219.480 45.688 C 219.469 45.814,219.471 45.978,219.484 46.054 C 219.498 46.130,219.437 46.147,219.349 46.093 C 219.089 45.932,218.984 46.279,219.231 46.484 C 219.408 46.631,219.517 46.583,219.723 46.268 C 219.955 45.914,219.957 45.839,219.744 45.662 C 219.550 45.501,219.496 45.506,219.480 45.688 M225.084 49.671 C 225.134 49.928,225.087 50.005,224.919 49.940 C 224.764 49.881,224.715 49.933,224.776 50.091 C 224.827 50.223,224.929 50.294,225.003 50.248 C 225.077 50.202,225.166 50.248,225.200 50.351 C 225.238 50.463,225.359 50.418,225.506 50.236 C 225.640 50.071,225.669 49.984,225.571 50.043 C 225.465 50.106,225.397 50.007,225.404 49.800 C 225.411 49.608,225.326 49.419,225.216 49.380 C 225.087 49.336,225.040 49.440,225.084 49.671 M245.625 58.339 C 245.849 58.428,246.151 58.428,246.375 58.339 C 246.681 58.215,246.612 58.188,246.000 58.188 C 245.388 58.188,245.319 58.215,245.625 58.339 M245.583 59.000 C 245.332 59.108,245.434 59.143,246.000 59.143 C 246.566 59.143,246.668 59.108,246.417 59.000 C 246.233 58.921,246.046 58.857,246.000 58.857 C 245.954 58.857,245.767 58.921,245.583 59.000 " stroke="none" fill="#fcfcfc" fill-rule="evenodd"></path><path id="path1" d="" stroke="none" fill="#100fcfc" fill-rule="evenodd"></path><path id="path2" d="" stroke="none" fill="#100fcfc" fill-rule="evenodd"></path><path id="path3" d="" stroke="none" fill="#100fcfc" fill-rule="evenodd"></path><path id="path4" d="" stroke="none" fill="#100fcfc" fill-rule="evenodd"></path></g></svg>